<svg width="14" height="25" viewBox="0 0 14 25" fill="none" xmlns="http://www.w3.org/2000/svg">
<path d="M12.6666 4.65576H8.66661C7.93021 4.65576 7.33327 5.25272 7.33327 5.9891V9.9891H12.6666C12.8182 9.98573 12.9621 10.0563 13.0522 10.1783C13.1423 10.3003 13.1677 10.4584 13.1199 10.6024L12.1333 13.5358C12.0423 13.805 11.7907 13.987 11.5066 13.9891H7.33327V23.9891C7.33327 24.3572 7.03474 24.6558 6.66661 24.6558H3.33327C2.96509 24.6558 2.66661 24.3572 2.66661 23.9891V13.9891H0.666606C0.298419 13.9891 -6.10352e-05 13.6906 -6.10352e-05 13.3224V10.6558C-6.10352e-05 10.2876 0.298419 9.9891 0.666606 9.9891H2.66661V5.9891C2.66661 3.04358 5.05447 0.655762 7.99994 0.655762H12.6666C13.0347 0.655762 13.3333 0.954242 13.3333 1.32243V3.9891C13.3333 4.35728 13.0347 4.65576 12.6666 4.65576Z" fill="black"/>
</svg>
