<svg width="29" height="28" viewBox="0 0 29 28" fill="none" xmlns="http://www.w3.org/2000/svg">
<path d="M14.6666 0.277786C12.8427 0.277786 11.0366 0.637035 9.35153 1.33502C7.66645 2.03301 6.13534 3.05606 4.84563 4.34577C2.24095 6.95045 0.777649 10.4832 0.777649 14.1667C0.777649 20.3057 4.76378 25.514 10.2777 27.3613C10.9721 27.4724 11.1944 27.0418 11.1944 26.6668V24.3196C7.34713 25.1529 6.52768 22.4584 6.52768 22.4584C5.88878 20.8473 4.986 20.4168 4.986 20.4168C3.72211 19.5557 5.08323 19.5834 5.08323 19.5834C6.47212 19.6807 7.20824 21.014 7.20824 21.014C8.41658 23.1251 10.4583 22.5001 11.2499 22.1668C11.3749 21.264 11.736 20.6529 12.1249 20.3057C9.04158 19.9584 5.80545 18.764 5.80545 13.4723C5.80545 11.9306 6.33323 10.6945 7.23601 9.70839C7.09712 9.36116 6.61101 7.91671 7.3749 6.0417C7.3749 6.0417 8.54158 5.6667 11.1944 7.45838C12.2916 7.15282 13.486 7.00004 14.6666 7.00004C15.8472 7.00004 17.0416 7.15282 18.1388 7.45838C20.7916 5.6667 21.9583 6.0417 21.9583 6.0417C22.7222 7.91671 22.2361 9.36116 22.0972 9.70839C23 10.6945 23.5278 11.9306 23.5278 13.4723C23.5278 18.7779 20.2777 19.9445 17.1805 20.2918C17.6805 20.7223 18.1388 21.5696 18.1388 22.8612V26.6668C18.1388 27.0418 18.3611 27.4863 19.0694 27.3613C24.5833 25.5001 28.5556 20.3057 28.5556 14.1667C28.5556 12.3428 28.1963 10.5368 27.4983 8.85167C26.8003 7.16658 25.7773 5.63548 24.4876 4.34577C23.1979 3.05606 21.6668 2.03301 19.9817 1.33502C18.2966 0.637035 16.4905 0.277786 14.6666 0.277786Z" fill="white"/>
</svg>
