<svg width="112" height="112" viewBox="0 0 112 112" fill="none" xmlns="http://www.w3.org/2000/svg">
<g filter="url(#filter0_d_0_215)">
<rect x="16.3333" y="16.3333" width="79.3331" height="79.3331" rx="10.3253" fill="white" shape-rendering="crispEdges"/>
<g clip-path="url(#clip0_0_215)">
<path d="M67.7073 29.24H44.2924C41.5328 29.24 39.275 31.4979 39.275 34.2575V77.7423C39.275 80.5019 41.5328 82.7598 44.2924 82.7598H67.7073C70.467 82.7598 72.7248 80.5019 72.7248 77.7423V34.2575C72.7248 31.4979 70.467 29.24 67.7073 29.24ZM49.3099 31.7487H62.6899V33.4212H49.3099V31.7487ZM55.9999 79.4148C55.1127 79.4148 54.2619 79.0624 53.6346 78.4351C53.0073 77.8077 52.6549 76.9569 52.6549 76.0698C52.6549 75.1826 53.0073 74.3318 53.6346 73.7045C54.2619 73.0772 55.1127 72.7248 55.9999 72.7248C56.887 72.7248 57.7378 73.0772 58.3652 73.7045C58.9925 74.3318 59.3449 75.1826 59.3449 76.0698C59.3449 76.9569 58.9925 77.8077 58.3652 78.4351C57.7378 79.0624 56.887 79.4148 55.9999 79.4148ZM69.3798 69.3798H42.6199V35.93H69.3798V69.3798Z" fill="#006B6A"/>
</g>
</g>
<defs>
<filter id="filter0_d_0_215" x="0.845291" y="0.84523" width="110.309" height="110.309" filterUnits="userSpaceOnUse" color-interpolation-filters="sRGB">
<feFlood flood-opacity="0" result="BackgroundImageFix"/>
<feColorMatrix in="SourceAlpha" type="matrix" values="0 0 0 0 0 0 0 0 0 0 0 0 0 0 0 0 0 0 127 0" result="hardAlpha"/>
<feOffset/>
<feGaussianBlur stdDeviation="7.74401"/>
<feComposite in2="hardAlpha" operator="out"/>
<feColorMatrix type="matrix" values="0 0 0 0 0 0 0 0 0 0 0 0 0 0 0 0 0 0 0.1 0"/>
<feBlend mode="normal" in2="BackgroundImageFix" result="effect1_dropShadow_0_215"/>
<feBlend mode="normal" in="SourceGraphic" in2="effect1_dropShadow_0_215" result="shape"/>
</filter>
<clipPath id="clip0_0_215">
<rect width="53.5198" height="53.5198" fill="white" transform="translate(29.24 29.24)"/>
</clipPath>
</defs>
</svg>
