<svg width="27" height="26" viewBox="0 0 27 26" fill="none" xmlns="http://www.w3.org/2000/svg">
<path d="M12.0943 0.952688C12.5526 -0.135923 14.1136 -0.135922 14.5719 0.952691L17.2769 7.37788C17.4703 7.83681 17.9072 8.15038 18.4086 8.1901L25.43 8.7462C26.6196 8.84042 27.102 10.3071 26.1956 11.0741L20.8461 15.6011C20.4641 15.9245 20.2971 16.4319 20.4138 16.9153L22.0482 23.6842C22.3251 24.831 21.0623 25.7376 20.0438 25.123L14.0325 21.4956C13.6031 21.2365 13.0631 21.2365 12.6337 21.4956L6.62241 25.123C5.6039 25.7376 4.34103 24.831 4.61793 23.6842L6.25232 16.9153C6.36906 16.4319 6.20219 15.9245 5.8201 15.6011L0.470505 11.0741C-0.435868 10.3071 0.046513 8.84042 1.23614 8.7462L8.25756 8.1901C8.75909 8.15038 9.19596 7.83681 9.38918 7.37788L12.0943 0.952688Z" fill="#006B6A"/>
</svg>
